PathFileType	3	(X/Y/Z)	D:\minhoCalibration\240510\subject1_KPNP\preferred\preferred19.trc
DataRate	CameraRate	NumFrames	NumMarkers	Units	OrigDataRate	OrigDataStartFrame	OrigNumFrames
200.0	200.0	30	10	mm	200.0	342	186	
Frame#	Time	Left_Ankle_Outer1			Left_Ankle_Inner1			Left_Knee_Outer1			Left_Knee_Inner1			Left_Wrist1			Right_Wrist1			Right_Knee_Inner1			Right_Knee_Outer1			Right_Ankle_Inner1			Right_Ankle_Outer1			
		X1	Y1	Z1	X2	Y2	Z2	X3	Y3	Z3	X4	Y4	Z4	X5	Y5	Z5	X6	Y6	Z6	X7	Y7	Z7	X8	Y8	Z8	X9	Y9	Z9	X10	Y10	Z10	
342	1.7	-551.35144	116.93473	-593.63843	-597.18036	128.65092	-560.21735	-384.57925	510.13089	-415.74567	-490.57687	491.33337	-382.51221	-388.49866	967.53137	-574.00879	-706.53271	1029.3107	-424.86346	-542.14923	629.2981	-179.4924	-650.91669	663.56635	-160.48251	-720.67938	226.6086	-265.50189	-812.62799	225.3074	-202.25441
343	1.705	-551.65704	115.45834	-594.05487	-597.77002	127.22367	-561.08514	-386.12534	508.16776	-414.11603	-492.85468	489.72311	-382.63678	-387.65799	966.07404	-572.45734	-707.19214	1025.8375	-425.77615	-548.79169	618.32214	-188.77522	-657.0069	653.23993	-169.68042	-727.08667	216.58292	-278.28525	-818.23633	214.8712	-215.45618
344	1.71	-551.97009	114.13794	-594.36591	-598.55249	125.94162	-561.70483	-387.46265	506.51419	-412.42535	-495.10605	488.05829	-383.07483	-386.54904	964.73016	-571.07849	-707.87146	1022.2154	-426.91348	-555.13141	608.0163	-198.54181	-662.48553	643.20898	-179.99312	-732.63702	208.64409	-290.9678	-824.03229	204.83922	-228.34149
345	1.715	-552.51001	113.11179	-594.52771	-599.34296	124.90208	-562.04199	-388.86209	505.01489	-410.57578	-497.31134	487.01337	-382.84665	-386.08124	963.34711	-569.40265	-707.93451	1018.4478	-429.23178	-560.7265	597.88745	-209.86908	-668.20374	633.49823	-189.84886	-739.77136	199.20145	-305.48859	-830.10748	196.33267	-241.02812
346	1.72	-553.27008	112.08094	-594.4281	-600.24847	123.9353	-562.27753	-390.4444	503.77841	-408.69653	-499.72455	485.94275	-382.41443	-385.4776	962.09265	-567.83075	-708.71185	1014.9895	-430.48251	-566.57526	588.2334	-220.7502	-673.67957	624.20782	-199.71631	-746.95599	191.1637	-319.12555	-835.58722	186.69154	-255.76376
347	1.725	-553.95355	111.36117	-594.3064	-601.1524	123.16251	-562.36945	-392.26382	502.71094	-406.80316	-501.74957	485.24045	-381.93558	-384.89246	961.07336	-566.29114	-710.53693	1011.9681	-429.69888	-571.97888	579.33752	-231.46466	-678.89502	615.30133	-209.84927	-751.66931	183.06425	-333.63437	-841.34717	179.08723	-269.82092
348	1.73	-554.53064	110.87366	-594.0813	-602.05957	122.42012	-562.40826	-393.67532	501.99634	-404.86688	-503.48102	484.93118	-381.33322	-384.44818	960.15411	-564.7793	-710.41376	1008.1166	-434.05844	-577.41058	570.86993	-243.4223	-683.7757	606.89569	-220.10335	-757.10266	175.0766	-345.54257	-846.96063	171.79607	-283.9798
349	1.735	-555.08063	110.47047	-593.97028	-603.36304	122.0631	-563.12689	-395.4971	501.49197	-402.95102	-505.53699	484.35577	-380.68988	-384.02814	959.33539	-563.33344	-710.94116	1005.4115	-436.89273	-582.67444	562.91071	-255.25519	-688.54559	599.13245	-230.45808	-760.85962	166.83098	-355.44342	-852.3667	164.51736	-295.97327
350	1.74	-555.79492	109.87186	-593.65393	-604.27673	121.51639	-563.23615	-397.05057	501.07242	-401.2529	-507.4783	484.23422	-379.64355	-383.6619	958.60742	-561.99261	-713.55823	1003.8306	-435.96857	-587.89368	555.27887	-267.14429	-693.25232	592.04999	-240.88931	-764.61688	158.89935	-363.75739	-857.70227	157.00372	-306.77603
351	1.745	-556.36493	109.31464	-593.06195	-604.83136	121.01868	-563.12976	-398.69727	500.65939	-399.66055	-508.95227	483.6825	-379.85614	-383.47095	958.01837	-560.70612	-715.08893	1001.7556	-437.93063	-593.17249	548.71515	-278.58932	-698.19189	585.72675	-251.59094	-766.50311	151.17384	-371.56799	-862.48651	149.2131	-316.83636
352	1.75	-556.69202	108.95959	-592.93433	-605.35919	120.68139	-563.17175	-400.70187	500.25128	-398.18658	-510.66394	483.88528	-378.38373	-383.10699	957.56604	-559.59149	-714.76337	999.53711	-443.57373	-598.54834	542.82745	-290.12936	-703.51672	580.30505	-262.67963	-768.25629	143.98347	-375.0589	-866.17792	141.63695	-325.47986
353	1.755	-556.77936	108.89986	-593.15088	-605.68701	120.22913	-563.16962	-401.89047	500.08075	-396.9415	-511.84619	483.69907	-378.67224	-383.45187	956.97931	-558.1377	-717.02167	1000.965	-440.40854	-604.04688	537.85638	-301.50256	-710.15668	576.10944	-272.76523	-768.22345	137.21245	-378.01422	-867.85895	133.78816	-332.97568
354	1.76	-556.96429	108.64241	-593.05127	-605.83191	119.54298	-562.90674	-403.22659	500.47089	-395.53458	-513.88702	483.63727	-377.82227	-383.34476	956.59729	-557.05054	-718.01135	998.6073	-446.38031	-609.68512	533.72406	-312.65631	-716.71637	572.56525	-284.62552	-768.14398	131.12364	-381.59991	-868.9939	127.83607	-337.95981
355	1.765	-557.0694	108.34961	-592.99622	-606.06836	119.22684	-563.05994	-404.98163	500.2587	-394.65286	-515.32916	483.2475	-378.2731	-383.15125	956.29358	-555.98828	-719.461	997.41418	-450.11697	-615.47638	530.30811	-323.12625	-724.27051	569.71857	-296.02051	-768.16779	126.51308	-384.57758	-868.55475	122.59639	-342.12161
356	1.77	-557.14099	108.08437	-593.04761	-606.28638	118.9211	-563.28424	-405.93619	500.36115	-394.02298	-516.58759	483.22934	-378.41431	-382.9212	956.20685	-554.91376	-720.37415	997.84802	-453.33298	-621.29364	527.9679	-331.58908	-731.61658	568.36023	-306.2984	-767.5946	122.69174	-388.18881	-867.98212	118.62966	-345.35934
357	1.775	-557.19751	107.84651	-593.14734	-606.41852	118.6095	-563.53082	-407.16235	500.42517	-393.71915	-517.8316	483.58295	-378.43973	-382.49561	956.44171	-553.87036	-722.20782	998.34827	-456.42462	-627.22363	526.1344	-340.38766	-737.94635	567.43201	-316.27869	-766.4621	119.73715	-391.41403	-866.82697	115.0239	-348.63083
358	1.78	-557.22223	107.65533	-593.27185	-606.52838	118.35625	-563.72418	-408.38828	500.52817	-393.69339	-518.42114	483.85876	-379.62051	-382.30673	956.78699	-552.61072	-723.73102	999.23425	-459.6745	-632.78796	525.43219	-347.80466	-743.61865	567.04297	-325.642	-765.30609	117.57949	-393.595	-865.83307	112.08465	-351.16251
359	1.785	-557.13135	107.47956	-593.5274	-606.79205	118.49069	-564.42926	-409.45847	500.76694	-393.92496	-519.87878	483.65457	-380.72272	-381.88892	957.10321	-551.34741	-724.96863	999.35382	-463.92096	-637.88495	527.04285	-351.14413	-748.92694	566.76996	-334.94412	-764.24915	115.78843	-394.83594	-865.00323	109.70885	-353.05353
360	1.79	-557.0144	107.348	-593.71259	-606.7851	118.24888	-564.88354	-410.56308	501.14114	-394.35703	-520.99615	484.01639	-381.80014	-381.61969	957.79059	-549.81848	-725.94745	999.94635	-468.11475	-642.93481	528.61224	-356.93286	-754.2251	566.54968	-344.12918	-763.77179	114.38273	-395.67261	-864.52869	108.06992	-354.37863
361	1.795	-556.9118	107.29132	-593.90924	-606.74756	118.1817	-565.16473	-411.61908	501.64746	-395.0835	-522.11682	484.46042	-382.99545	-381.28833	958.71887	-548.17395	-729.61072	1001.5212	-474.46307	-647.81421	530.37616	-362.75134	-759.78894	566.2453	-353.30206	-763.57513	113.68352	-396.30215	-864.37952	107.22972	-355.32657
362	1.8	-556.74017	107.34446	-594.1554	-606.64441	118.19356	-565.49939	-412.59991	502.36243	-395.9339	-523.41858	484.74661	-384.55139	-381.14401	959.80212	-546.37256	-730.51306	1001.7117	-478.59677	-652.59644	532.10638	-368.39676	-765.29474	566.20459	-362.40515	-763.73486	113.67987	-396.7142	-864.65771	107.06175	-356.09567
363	1.805	-556.487	107.48224	-594.38269	-606.2276	117.98687	-565.41437	-413.59583	503.23999	-396.94968	-524.48969	486.5314	-384.51059	-381.09143	961.2879	-544.40656	-730.78088	1003.7576	-483.61588	-657.34216	533.49359	-373.66522	-770.74823	566.35236	-371.83447	-764.01245	114.15261	-397.19714	-865.03613	106.9431	-357.42599
364	1.81	-556.1275	107.72025	-594.60632	-606.17828	118.4612	-566.1095	-414.6395	504.24557	-398.06409	-525.43927	486.72302	-387.04007	-381.02805	962.79895	-542.4046	-730.22052	1003.5688	-487.43085	-662.02972	534.4657	-378.55701	-776.01099	566.71814	-381.48517	-764.38684	114.75797	-397.68414	-865.80542	107.28626	-358.86792
365	1.815	-555.62433	108.03556	-594.91846	-605.77551	118.73806	-566.43628	-415.62604	505.49429	-399.2395	-526.44983	487.87238	-388.59055	-380.82837	964.52563	-540.45538	-730.16772	1004.2087	-492.58594	-666.51062	535.09088	-382.83694	-780.61273	567.03094	-391.36456	-765.05505	115.6222	-398.67694	-866.9361	107.82668	-360.91614
366	1.82	-554.99237	108.48321	-595.16492	-604.99896	118.93246	-566.539	-416.66272	506.82925	-400.56317	-527.14154	489.25186	-390.42343	-380.95032	966.19543	-538.43347	-731.83209	1006.0011	-497.92148	-670.98273	535.88611	-386.03214	-784.98199	567.52307	-400.6745	-766.08014	116.4792	-400.46893	-868.34393	108.29715	-363.88818
367	1.825	-554.30975	108.79989	-595.42896	-604.17505	119.11603	-566.67932	-417.70786	508.26132	-401.88721	-528.38928	490.40701	-392.12302	-381.26669	968.03632	-536.44312	-731.82654	1006.1379	-503.56644	-675.24951	536.88708	-388.34464	-789.03461	568.04785	-409.25729	-767.30219	117.54207	-403.064	-870.13654	109.18633	-367.74792
368	1.83	-553.59576	109.14468	-595.76202	-603.42657	119.46332	-567.18195	-418.80597	509.73141	-403.22256	-528.94623	492.12628	-394.24216	-381.72046	969.93463	-534.53619	-733.25348	1006.7812	-508.68011	-679.47906	538.29803	-389.71799	-792.677	568.29858	-416.80936	-768.58521	118.59782	-406.63815	-871.50262	110.01383	-372.89825
369	1.835	-552.6955	109.54156	-596.18555	-602.6178	119.714	-567.599	-419.84116	511.29694	-404.65195	-530.48059	493.28958	-396.0368	-382.29001	971.79254	-532.77069	-733.42944	1008.6377	-513.8266	-683.48822	540.13635	-390.6571	-795.84393	568.66803	-423.28564	-769.60132	119.86902	-411.25024	-872.84235	111.23812	-378.884
370	1.84	-551.72333	109.9142	-596.52905	-601.71051	120.12818	-568.21216	-421.07401	512.79901	-406.09161	-531.56689	494.58566	-398.32526	-382.85373	973.81885	-531.11932	-734.23358	1009.5428	-518.98779	-687.22101	542.3396	-391.46234	-798.1026	569.33453	-428.79834	-770.16876	121.38708	-416.28491	-873.88184	112.73417	-385.6701
371	1.845	-550.65002	110.27636	-596.93604	-600.67926	120.40647	-568.87335	-422.16632	514.41034	-407.591	-532.80017	496.02231	-400.68668	-383.64645	975.71307	-529.52429	-734.83405	1010.6056	-524.23114	-690.24695	544.82367	-392.55573	-799.53809	570.43958	-433.09174	-770.76306	122.82648	-421.63211	-874.87921	114.43567	-392.77649
